<?xml version="1.0" encoding="utf-8"?>
<!-- Generator: Adobe Illustrator 19.2.1, SVG Export Plug-In . SVG Version: 6.00 Build 0)  -->
<svg version="1.1" id="layer" xmlns="http://www.w3.org/2000/svg" xmlns:xlink="http://www.w3.org/1999/xlink" x="0px" y="0px"
	 viewBox="0 0 652 652" style="enable-background:new 0 0 652 652;" xml:space="preserve">
<style type="text/css">
	.st0{fill:#282C33;}
	.st1{fill:#F96B13;}
	.st2{fill:#CC4E00;}
	.st3{fill:#FFCA73;}
</style>
<path class="st0" d="M124.2,282.6h16.7v60.5h29.9v13.1h-46.6V282.6z M175.6,337.2v-34.7h14.8v32.6c0,7.3,3.1,10.8,9.3,10.8
	c1.5,0.1,3.1-0.2,4.5-0.8c1.4-0.6,2.7-1.5,3.8-2.6c1.1-1.1,1.9-2.5,2.4-3.9c0.5-1.5,0.7-3,0.5-4.6v-31.6h14.8v53.8h-14.7v-8.4
	c-1.6,3.1-4.1,5.6-7.1,7.3c-3,1.7-6.5,2.5-10,2.2C183.5,357.5,175.6,351.3,175.6,337.2z M232.9,330.1v-0.8
	c-0.2-3.7,0.5-7.4,1.8-10.8c1.3-3.4,3.4-6.6,6-9.2c2.6-2.6,5.7-4.7,9.2-6c3.4-1.3,7.1-2,10.8-1.8c12.4,0,24,5.4,25.3,20.9h-14.2
	c-0.1-1.3-0.4-2.6-1-3.8c-0.6-1.2-1.4-2.3-2.4-3.1c-1-0.9-2.2-1.5-3.5-1.9c-1.3-0.4-2.6-0.5-3.9-0.4c-7.7,0-12.9,5.8-12.9,16.1v0.8
	c0,10.8,4.8,16.4,13.2,16.4c1.4,0.1,2.9-0.1,4.2-0.6c1.4-0.5,2.6-1.2,3.7-2.2c1.1-1,1.9-2.1,2.6-3.4c0.6-1.3,1-2.7,1-4.2h13.5
	c-0.8,12.7-10.1,21.6-25.7,21.6C244.9,357.6,232.9,347.7,232.9,330.1z M293.3,287.1c-0.1-1.7,0.4-3.4,1.3-4.8
	c0.9-1.4,2.2-2.6,3.7-3.3c1.5-0.7,3.3-0.9,4.9-0.6c1.7,0.3,3.2,1.1,4.4,2.3c1.2,1.2,2.1,2.7,2.4,4.4c0.4,1.7,0.2,3.4-0.4,5
	c-0.6,1.6-1.7,2.9-3.2,3.9c-1.4,0.9-3.1,1.4-4.8,1.4c-1.1,0-2.2-0.1-3.2-0.5c-1-0.4-2-1-2.7-1.7c-0.8-0.8-1.4-1.7-1.8-2.7
	C293.6,289.3,293.3,288.2,293.3,287.1L293.3,287.1z M294.5,302.6h14.8v53.8h-14.8V302.6z M315.8,330.2v-0.8
	c0-17.7,10.2-28.1,23.7-28.1c3.4-0.2,6.8,0.5,9.8,2.2c3,1.6,5.5,4.1,7.1,7.1v-31.5h14.8v77.3h-14.8v-9c-1.7,3.1-4.2,5.6-7.3,7.4
	c-3,1.8-6.5,2.7-10,2.7C326.1,357.5,315.8,348.1,315.8,330.2z M356,329.7v-0.8c0-10.7-4.7-16.2-12.9-16.2s-13,5.7-13,16.4v0.8
	c0,10.7,5.2,15.9,12.6,15.9S356,340.6,356,329.7z M377.6,330.1v-0.8c-0.2-3.7,0.5-7.4,1.8-10.8c1.3-3.4,3.4-6.6,6-9.2
	c2.6-2.6,5.7-4.7,9.2-6c3.4-1.3,7.1-2,10.8-1.8c12.4,0,24,5.4,25.3,20.9h-14.1c-0.1-1.4-0.4-2.7-1.1-3.9c-0.6-1.2-1.5-2.3-2.5-3.2
	c-1.1-0.9-2.3-1.5-3.6-1.9c-1.3-0.4-2.7-0.5-4-0.3c-7.7,0-12.8,5.8-12.8,16.1v0.8c0,10.8,4.8,16.4,13.1,16.4
	c1.4,0.1,2.9-0.1,4.2-0.6c1.4-0.5,2.6-1.2,3.7-2.2c1.1-1,1.9-2.1,2.6-3.4c0.6-1.3,1-2.7,1-4.2h13.5c-0.8,12.7-10.1,21.6-25.7,21.6
	C389.4,357.6,377.6,347.7,377.6,330.1z M437.6,279.1h14.9v32c1.7-3.1,4.2-5.7,7.3-7.4c3.1-1.7,6.6-2.5,10.2-2.3
	c10.6,0,18.1,6.4,18.1,20.8v34.3h-14.9v-32.1c0-7.3-2.9-10.8-9.5-10.8s-11.2,3.9-11.2,11.8v31.1h-14.9V279.1z M494.7,341.4
	c0-12.5,11.5-17.3,27.8-17.3h6.2V322c0-6.4-1.9-9.9-8.8-9.9c-1.1-0.2-2.3-0.1-3.4,0.2c-1.1,0.3-2.1,0.8-3,1.6
	c-0.9,0.7-1.6,1.6-2.1,2.6c-0.5,1-0.8,2.1-0.8,3.3h-14.1c0.9-12.8,11-18.6,24.2-18.6c13.2,0,22.5,5.4,22.5,19.9v35.2h-14.5v-6.5
	c-1.8,2.6-4.3,4.6-7.1,5.9c-2.8,1.3-6,1.9-9.1,1.7C502.9,357.5,494.7,352.8,494.7,341.4z M528.7,337.5V333H523
	c-8.7,0-13.7,1.9-13.7,7.6c0,3.9,2.4,6.5,7.8,6.5C523.7,347.1,528.8,343.5,528.7,337.5L528.7,337.5z M553.1,302.6H568v10.3
	c1.4-3.4,3.8-6.4,6.9-8.4c3.1-2,6.8-3,10.5-2.8v13.9c-11,0-17.4,3.5-17.4,13.8v27h-14.9V302.6z M595.3,340.4v-27.3h-6.9v-10.5h6.9
	v-11.6h14.8v11.6h11.8v10.5h-11.8V339c0,4.3,2.2,6.4,6,6.4c2-0.1,4-0.5,5.8-1.4v12.4c-3,0.8-6.2,1.2-9.3,1
	C601.4,357.4,595.3,351.6,595.3,340.4z"/>
<path class="st1" d="M21.9,298.2v44.5L59.9,365v-11.1l-28.5-16.7v-33.4L21.9,298.2z"/>
<path class="st2" d="M88.3,303.8v44.5l9.5-5.6v-44.5L88.3,303.8z"/>
<path class="st3" d="M50.4,281.5l37.9,22.3l9.5-5.6L59.9,276L50.4,281.5z"/>
<path class="st3" d="M21.9,298.2l9.5,5.6l9.5-5.6l-9.5-5.6L21.9,298.2z"/>
<path class="st2" d="M31.4,303.8v33.4l9.5-5.6v-33.4L31.4,303.8z"/>
<path class="st2" d="M59.9,353.9V365l9.5-5.6v-11.1L59.9,353.9z"/>
<path class="st3" d="M31.4,337.2l28.5,16.7l9.5-5.6l-28.5-16.7L31.4,337.2z"/>
<path class="st1" d="M50.4,281.5v11.1l28.5,16.7v33.4l9.5,5.6v-44.5L50.4,281.5z"/>
</svg>
